# xmcd
# 
# Track frame offsets:
#     150
#     14845
#     27980
#     40391
#     53526
#     67776
#     80019
#     93154
#     106178
#     119592
#     133563
#     144971
#     158719
#     171130
#     185380
#     198571
#     211427
#     225119
#     239257
#     252392
#     265471
#     279054
#     292691
#     307386
#     321970
# 
# Disc length: 4466
# 
# Revision: 2
# Processed by: cddbd v1.5.2PL0 Copyright (c) Steve Scherf et al.
# Submitted via: fre:ac v1.0.31
# 
DISCID=5d117019
DTITLE=Various Artist - The Rough Guide to The Greatest Country Blues You've Never Heard: Reborn and Remastered
DYEAR=2018
DGENRE=Blues
TTITLE0=Little Hat Jones - Kentucky Blues
TTITLE1=Carl Martin - Crow Jane
TTITLE2=Johnnie Head - Fare Thee Blues - Part 1
TTITLE3="Funny Papa" Smith - Honey Blues
TTITLE4=Lottie Kimbrough and Winston Holmes - Lost Lover Blues
TTITLE5=Fred McMullen and Ruth Willis - Just Can't Stand It
TTITLE6=Jack Gowdlock - Rollin' Dough Blues
TTITLE7=The Two Poor Boys - Two White Horses In A Line
TTITLE8=Bob Campbell - Shotgun Blues
TTITLE9=Charlie McCoy - Always In Love With You
TTITLE10=Papa Egg Shell - I'm Goin' Up The Country - Part 1
TTITLE11=Ollis Martin - Police And High Sheriff Come Ridin' Down
TTITLE12=Spark Plug Smith - In A Shanty In Old Shanty Town
TTITLE13=Tom Dickson - Death Bell Blues
TTITLE14=Uncle Bud Walker - Look Here Mama Blues
TTITLE15=Willie Baker - No No Blues
TTITLE16=Walter Coleman - Mama Let Me Lay It On You
TTITLE17=Pearl Dickson - Twelve Pound Daddy
TTITLE18=Jack O'Diamonds - The Ducks Yas Yas
TTITLE19=Mississippi Matilda - Hard Working Woman
TTITLE20=Jim Byrd and Washboard Walter - Wasn't It Sad About Lemon
TTITLE21=Will Weldon - Hitch Me To Your Buggy And Drive Me Like A Mule
TTITLE22=Willie Reed - Texas Blues
TTITLE23=Mooch Richardson - T And T Blues
TTITLE24=Vol Stevens - Baby Got The Rickets
EXTD=
EXTT0=
EXTT1=
EXTT2=
EXTT3=
EXTT4=
EXTT5=
EXTT6=
EXTT7=
EXTT8=
EXTT9=
EXTT10=
EXTT11=
EXTT12=
EXTT13=
EXTT14=
EXTT15=
EXTT16=
EXTT17=
EXTT18=
EXTT19=
EXTT20=
EXTT21=
EXTT22=
EXTT23=
EXTT24=
PLAYORDER=
